<mxfile host="65bd71144e">
    <diagram id="-4cKTpjJk5KunKdh2ui8" name="Page-1">
        <mxGraphModel dx="1361" dy="660" grid="1" gridSize="10" guides="1" tooltips="1" connect="1" arrows="1" fold="1" page="1" pageScale="1" pageWidth="827" pageHeight="1169" math="0" shadow="0">
            <root>
                <mxCell id="0"/>
                <mxCell id="1" parent="0"/>
                <mxCell id="BA1uCCOdd2069HZGyUyb-1" value="" style="endArrow=classic;html=1;rounded=0;strokeWidth=3;strokeColor=#ae4132;fillColor=#fad9d5;" parent="1" edge="1">
                    <mxGeometry width="50" height="50" relative="1" as="geometry">
                        <mxPoint x="14" y="400" as="sourcePoint"/>
                        <mxPoint x="134" y="400" as="targetPoint"/>
                    </mxGeometry>
                </mxCell>
                <mxCell id="BA1uCCOdd2069HZGyUyb-2" value="" style="endArrow=classic;html=1;rounded=0;strokeWidth=3;strokeColor=#b85450;fillColor=#f8cecc;" parent="1" edge="1">
                    <mxGeometry width="50" height="50" relative="1" as="geometry">
                        <mxPoint x="694" y="400" as="sourcePoint"/>
                        <mxPoint x="814" y="400" as="targetPoint"/>
                    </mxGeometry>
                </mxCell>
                <mxCell id="BA1uCCOdd2069HZGyUyb-3" value="" style="rounded=0;whiteSpace=wrap;html=1;fillColor=#cce5ff;strokeColor=#36393d;" parent="1" vertex="1">
                    <mxGeometry x="134" y="320" width="560" height="160" as="geometry"/>
                </mxCell>
                <mxCell id="BA1uCCOdd2069HZGyUyb-9" style="edgeStyle=orthogonalEdgeStyle;rounded=0;orthogonalLoop=1;jettySize=auto;html=1;fontSize=14;strokeWidth=3;strokeColor=#b85450;fillColor=#f8cecc;" parent="1" source="BA1uCCOdd2069HZGyUyb-4" target="BA1uCCOdd2069HZGyUyb-6" edge="1">
                    <mxGeometry relative="1" as="geometry"/>
                </mxCell>
                <mxCell id="BA1uCCOdd2069HZGyUyb-4" value="&lt;font style=&quot;font-size: 14px&quot; color=&quot;#000000&quot;&gt;Fuente&lt;/font&gt;" style="rounded=1;whiteSpace=wrap;html=1;fillColor=#d5e8d4;strokeColor=#82b366;strokeWidth=2;" parent="1" vertex="1">
                    <mxGeometry x="174" y="380" width="80" height="40" as="geometry"/>
                </mxCell>
                <mxCell id="BA1uCCOdd2069HZGyUyb-10" style="edgeStyle=orthogonalEdgeStyle;rounded=0;orthogonalLoop=1;jettySize=auto;html=1;fontSize=14;strokeWidth=3;fillColor=#f8cecc;strokeColor=#b85450;" parent="1" source="BA1uCCOdd2069HZGyUyb-6" target="BA1uCCOdd2069HZGyUyb-7" edge="1">
                    <mxGeometry relative="1" as="geometry"/>
                </mxCell>
                <mxCell id="BA1uCCOdd2069HZGyUyb-6" value="&lt;p class=&quot;MsoNormal&quot;&gt;&lt;font style=&quot;font-size: 14px&quot; color=&quot;#1a1a1a&quot;&gt;Operaci칩n de transformaci칩n de datos&lt;/font&gt;&lt;/p&gt;" style="rounded=1;whiteSpace=wrap;html=1;fillColor=#d5e8d4;strokeColor=#82b366;strokeWidth=2;" parent="1" vertex="1">
                    <mxGeometry x="334" y="380" width="160" height="40" as="geometry"/>
                </mxCell>
                <mxCell id="BA1uCCOdd2069HZGyUyb-7" value="&lt;p class=&quot;MsoNormal&quot;&gt;&lt;font style=&quot;font-size: 14px&quot; color=&quot;#000000&quot;&gt;Objetivos&amp;nbsp;&lt;/font&gt;&lt;/p&gt;" style="rounded=1;whiteSpace=wrap;html=1;fillColor=#d5e8d4;strokeColor=#82b366;strokeWidth=2;" parent="1" vertex="1">
                    <mxGeometry x="574" y="380" width="80" height="40" as="geometry"/>
                </mxCell>
                <mxCell id="BA1uCCOdd2069HZGyUyb-11" value="&lt;p class=&quot;MsoNormal&quot;&gt;&lt;font color=&quot;#000000&quot;&gt;Par치metro de entrada&lt;/font&gt;&lt;/p&gt;" style="rounded=0;whiteSpace=wrap;html=1;fontSize=14;strokeWidth=2;fillColor=#f8cecc;strokeColor=#b85450;" parent="1" vertex="1">
                    <mxGeometry x="28" y="330" width="98" height="60" as="geometry"/>
                </mxCell>
                <mxCell id="BA1uCCOdd2069HZGyUyb-12" value="&lt;p class=&quot;MsoNormal&quot;&gt;&lt;font color=&quot;#000000&quot;&gt;Par치metro de salida&lt;/font&gt;&lt;/p&gt;" style="rounded=0;whiteSpace=wrap;html=1;fontSize=14;strokeWidth=2;fillColor=#f8cecc;strokeColor=#b85450;" parent="1" vertex="1">
                    <mxGeometry x="703" y="330" width="100" height="60" as="geometry"/>
                </mxCell>
            </root>
        </mxGraphModel>
    </diagram>
</mxfile>